# xmcd
#
# Track frame offsets:
#	150
#	13625
#	27942
#	42174
#	56686
#	70927
#	87760
#	97947
#	114246
#	129462
#	144810
#	160300
#	173711
#	186203
#	200594
#	216520
#	230358
#	244737
#
# Disc length: 3455 seconds
#
# Revision: 0
# Processed by: cddbd v1.5.2PL0 Copyright (c) Steve Scherf et al.
# Submitted via: EasyCDDAExtractor 16.0.6.1
#
DISCID=ef0d7d12
DTITLE=Πάνου Πόλυ - Τραγούδια 45 στροφές-Πάνου Πόλυ 3
DYEAR=1998
DGENRE=Λαϊκή
TTITLE0=Πάνου Πόλυ - Καίγομαι, καίγομαι [1962, Γιάννη Καραμπεσίνη]
TTITLE1=Πάνου Πόλυ - Το μπριγιάν [1961, Β. Τσιτσάνη-Φ. Μιχαλάτου]
TTITLE2=Πάνου Πόλυ - Θα ρίξω πέτρα πίσω μου [1961, Κ. Ζήτη-Θ. Δερβενιώτη]
TTITLE3=Πάνου Πόλυ - Το παρελθόν μου το βαρύ [1961, Μ. Μπακάλη-Ε. Παπαγιαννοπο
TTITLE3=ύλου]
TTITLE4=Πάνου Πόλυ-Γκίκα Βούλα - Γεννήθηκα να σ' αγαπώ [1962, Π. Πετσά]
TTITLE5=Πάνου Πόλυ - Δάκρυα μάννας [1961, Μ. Μπακάλη-Δ. Γκούτη]
TTITLE6=Πάνου Πόλυ - Όταν θα πω εγώ το αχ [1961, Στ. Τζουανάκου]
TTITLE7=Πάνου Πόλυ-Μητσάκης Γ.-Τατασσόπουλος Γ. - Το αίμα νερό δεν γίνεται [19
TTITLE7=62, Γ. Μητσάκη-Κ. Βίρβου]
TTITLE8=Πάνου Πόλυ - Σε ποιο βουνό [1964, Μ. Θεοδωράκη-Χρ. Κολοκοτρώνη]
TTITLE9=Πάνου Πόλυ - Αγάπη δεν υπάεχει πια [1962, Γιάννη Καραμπεσίνη]
TTITLE10=Πάνου Πόλυ - Πικραμένη μάννα [1961, Θ. Δερβενιώτη-Κ. Βίρβου]
TTITLE11=Πάνου Πόλυ-Ρεπάνης Αντώνης - Αγανάκτηση [1961, Γ. Μητσάκη]
TTITLE12=Πάνου Πόλυ - Ώρα τρελλή [1973, Ά. Πάνου]
TTITLE13=Πάνου Πόλυ-Χρηστάκης - Στην ιτιά, στην κρύα βρύση [1962, Α. Τσαβαλά-Ν
TTITLE13=Φατσέα]
TTITLE14=Πάνου Πόλυ - Μην περάσεις απ' τη γειτονιά μου [1969, Κ. Σκαρβέλη]
TTITLE15=Πάνου Πόλυ - Ποιος μπορεί να μού γιατρέψει [1963, Γιάννη Καραμπεσίνη]
TTITLE16=Πάνου Πόλυ - Συνομωσία [1969, Β. Καραπατάκη-Ν. Μουρκάκου]
TTITLE17=Πάνου Πόλυ - Πού είναι η αγάπη μου [1961, Β. Τσιτσάνη]
EXTD=
EXTT0=
EXTT1=
EXTT2=
EXTT3=
EXTT4=
EXTT5=
EXTT6=
EXTT7=
EXTT8=
EXTT9=
EXTT10=
EXTT11=
EXTT12=
EXTT13=
EXTT14=
EXTT15=
EXTT16=
EXTT17=
PLAYORDER=
